<?xml version="1.0" encoding="UTF-8"?>
<!DOCTYPE svg PUBLIC "-//W3C//DTD SVG 1.1//EN" "http://www.w3.org/Graphics/SVG/1.1/DTD/svg11.dtd">
<!-- Creator: CorelDRAW (Versión OEM) -->
<svg xmlns="http://www.w3.org/2000/svg" xml:space="preserve" width="100mm" height="36.6845mm" version="1.1" shape-rendering="geometricPrecision" text-rendering="geometricPrecision" image-rendering="optimizeQuality" fill-rule="evenodd" clip-rule="evenodd"
viewBox="0 0 618.2 226.78"
 xmlns:xlink="http://www.w3.org/1999/xlink"
 xmlns:xodm="http://www.corel.com/coreldraw/odm/2003">
 <g id="PRINT">
  <metadata id="CorelCorpID_0Corel-Layer"/>
  <path fill="#160F50" fill-rule="nonzero" d="M269.72 151.83c-7.9,3.24 -17.49,4.8 -26.38,4.8 -8.89,0 -15.8,-3.39 -17.07,-10.44l45.42 -6.77 0 -5.36c0,-21.86 -14.25,-32.3 -35.26,-32.3 -21.16,0 -35.4,10.44 -35.4,32.3l0 7.62c0,21.86 14.53,32.3 35.97,32.3 11.42,0 21.44,-1.83 29.48,-5.22l3.24 -16.93zm-44.43 -19.32l0 -0.71c0,-10.01 3.95,-14.95 12.13,-14.95 7.19,0 11,4.65 12.13,11.99l-24.26 3.67zm118.05 20.73c-6.06,2.4 -11.71,3.39 -20.03,3.39 -10.86,0 -16.22,-5.36 -16.22,-16.5l0 -4.51c0,-11.28 5.22,-16.64 15.94,-16.64 7.33,0 12.41,1.27 17.63,4.23l0 -17.91c-6.21,-2.4 -13.96,-3.53 -22.71,-3.53 -21.02,0 -35.12,10.44 -35.12,32.3l0 7.62c0,21.86 14.1,32.3 35.12,32.3 8.6,0 16.36,-1.27 22.57,-3.67l2.82 -17.07zm34.97 -5.08l0 -28.35 18.34 0 0 -17.21 -18.34 0 0 -19.46 -24.26 4.23 0 61.78c0,16.64 11.14,24.83 25.95,24.83 4.94,0 10.58,-0.57 15.66,-2.4l3.1 -16.64c-4.37,1.27 -8.18,1.69 -12.41,1.69 -5.08,0 -8.04,-3.1 -8.04,-8.46zm65.44 -29.2c7.62,0 11.28,4.37 11.28,13.4l0 11c0,9.03 -3.67,13.26 -11.28,13.26 -7.62,0 -11.42,-4.23 -11.42,-13.26l0 -11c0,-9.03 3.81,-13.4 11.42,-13.4zm-35.69 22.71c0,21.86 14.39,32.3 35.69,32.3 21.3,0 35.69,-10.44 35.69,-32.3l0 -7.62c0,-22.29 -14.39,-32.3 -35.69,-32.3 -21.3,0 -35.69,10.44 -35.69,32.3l0 7.62zm129.75 -18.76l0 -18.34c-3.53,-1.97 -8.6,-2.68 -14.67,-2.68 -8.89,0 -19.89,1.55 -30.75,3.38l0 67.84 24.26 0 0 -51.34c3.67,-0.85 6.91,-1.27 9.87,-1.27 4.37,0 8.04,0.85 11.28,2.4zm78.41 28.91c-7.9,3.24 -17.49,4.8 -26.38,4.8 -8.89,0 -15.8,-3.39 -17.07,-10.44l45.42 -6.77 0 -5.36c0,-21.86 -14.25,-32.3 -35.26,-32.3 -21.16,0 -35.4,10.44 -35.4,32.3l0 7.62c0,21.86 14.53,32.3 35.97,32.3 11.42,0 21.44,-1.83 29.48,-5.22l3.24 -16.93zm-44.43 -19.32l0 -0.71c0,-10.01 3.95,-14.95 12.13,-14.95 7.19,0 11,4.65 12.13,11.99l-24.26 3.67z"/>
  <path fill="#8655FF" fill-rule="nonzero" d="M-0 0l86.81 218.57 54.64 0 86.49 -218.57 -26.52 0c-21.67,0 -40.1,13.21 -47.06,33.73l-29.45 86.79c-1.58,4.66 -5.76,7.66 -10.67,7.67 -4.92,0.01 -9.11,-2.97 -10.7,-7.63l-29.88 -87.01c-7.02,-20.44 -25.39,-33.55 -47,-33.55l-26.66 0z"/>
  <path fill="#373435" fill-rule="nonzero" d="M230.83 216.54l-11.57 -24.37c-0.6,-1.25 -1.47,-1.94 -2.77,-1.94l-0.48 0c-1.3,0 -2.2,0.69 -2.81,1.94l-11.57 24.37c-0.6,1.3 0.09,2.03 1.43,2.03l4.36 0c1.34,0 1.56,-0.69 2.07,-2.03l1.07 -2.59 11.06 0 1.04 2.59c0.52,1.34 0.78,2.03 2.11,2.03l4.62 0c1.34,0 2.03,-0.73 1.43,-2.03zm-18.19 -7.69l3.59 -8.64 3.41 8.64 -7 0zm40.1 -12.1l-1.99 0c-1.3,0 -1.99,0.73 -1.99,1.99l0 0.04c-1.77,-1.47 -4.02,-2.38 -6.61,-2.38 -5.83,0 -10.24,4.32 -10.24,10.16 0,5.88 4.41,10.2 10.2,10.2 2.2,0 4.19,-0.65 5.79,-1.73l0 2.2c0,2.9 -2.59,4.15 -5.27,4.15 -2.72,0 -5.06,-1.3 -6.27,-2.42 -1.08,-0.86 -1.9,-0.65 -2.59,0.09l-1.21 1.43c-0.86,1.04 -0.61,1.9 0.09,2.64 2.07,2.07 5.32,3.67 9.9,3.67 6.87,0 12.19,-3.59 12.19,-10.93l0 -17.11c0,-1.25 -0.73,-1.99 -1.99,-1.99zm-8.9 14.52c-2.64,0 -4.54,-1.99 -4.54,-4.71 0,-2.72 1.9,-4.67 4.54,-4.67 2.68,0 4.58,1.94 4.58,4.71 0,2.68 -1.9,4.67 -4.58,4.67zm21.87 -1.9l13.74 0c1.6,0 1.99,-0.56 1.99,-2.07 0,-2.98 -1.17,-5.83 -3.15,-7.82 -1.86,-1.86 -4.71,-3.07 -8.17,-3.07 -6.78,0 -11.62,4.8 -11.62,11.32 0,6.74 5.06,11.41 11.97,11.41 3.41,0 7.35,-1.12 9.29,-3.2 0.52,-0.56 0.86,-1.3 -0.09,-2.2l-1.47 -1.51c-0.82,-0.86 -1.47,-0.56 -2.25,0.04 -1.56,1.08 -3.07,1.56 -4.62,1.56 -2.85,0 -5.27,-1.56 -5.62,-4.45zm4.24 -7.82c1.25,0 2.25,0.43 3.02,1.21 0.6,0.61 1.04,1.47 1.21,2.51l-8.43 0c0.3,-2.29 1.9,-3.72 4.19,-3.72zm28.05 -5.14c-3.15,0 -5.32,1.43 -6.74,3.46l0 -1.12c0,-1.25 -0.69,-1.99 -1.94,-1.99l-2.29 0c-1.25,0 -1.94,0.73 -1.94,1.99l0 17.85c0,1.25 0.69,1.99 1.94,1.99l3.59 0c1.25,0 1.94,-0.73 1.94,-1.99l0 -10.2c0,-2.16 1.34,-3.63 3.5,-3.63 2.12,0 3.41,1.47 3.41,3.63l0 10.2c0,1.25 0.73,1.99 1.99,1.99l3.54 0c1.25,0 1.99,-0.73 1.99,-1.99l0 -10.76c0,-5.75 -3.72,-9.42 -8.99,-9.42zm24.33 22.73c3.67,0 6.48,-1.34 8.56,-3.37 0.56,-0.6 0.91,-1.3 -0.04,-2.25l-2.29 -2.29c-0.61,-0.56 -1.25,-0.82 -2.25,0.09 -1.08,0.99 -2.38,1.47 -3.67,1.47 -2.81,0 -4.71,-2.16 -4.71,-5.01 0,-2.85 1.94,-4.97 4.71,-4.97 1.3,0 2.59,0.43 3.67,1.43 0.99,0.91 1.64,0.65 2.25,0.09l2.29 -2.29c0.95,-0.95 0.6,-1.64 0.04,-2.25 -2.07,-2.03 -4.88,-3.37 -8.56,-3.37 -6.78,0 -11.8,4.8 -11.8,11.37 0,6.57 5.01,11.37 11.8,11.37zm16.16 -25.71c2.51,0 4.49,-2.03 4.49,-4.49 0,-2.51 -1.99,-4.49 -4.49,-4.49 -2.46,0 -4.49,1.99 -4.49,4.49 0,2.46 2.03,4.49 4.49,4.49zm-1.77 25.15l3.54 0c1.25,0 1.99,-0.73 1.99,-1.99l0 -17.85c0,-1.25 -0.73,-1.99 -1.99,-1.99l-3.54 0c-1.3,0 -1.99,0.73 -1.99,1.99l0 17.85c0,1.25 0.69,1.99 1.99,1.99zm19.96 -22.17c-2.59,0 -5.7,0.78 -7.82,2.12 -0.91,0.56 -1.25,1.34 -0.52,2.72l0.48 0.99c0.61,1.21 1.56,1.3 2.51,0.78 1.04,-0.61 2.72,-1.25 4.84,-1.25 2.51,0 3.93,1.21 3.93,3.24l0 0.78c-1.56,-0.52 -3.24,-0.91 -4.93,-0.91 -5.62,0 -9.29,2.94 -9.29,7.39 0,4.11 3.37,6.87 8.51,6.87 2.68,0 5.1,-1.08 6.91,-2.72l0 0.17c0,1.25 0.69,1.99 1.94,1.99l1.77 0c1.3,0 1.99,-0.69 1.99,-1.99l0 -10.93c0,-6.96 -5.1,-9.25 -10.33,-9.25zm-0.39 18.11c-2.07,0 -3.41,-1.04 -3.41,-2.64 0,-1.6 1.38,-2.72 3.5,-2.72 1.56,0 3.07,0.56 3.89,0.95l0 1.77c0,1.17 -1.64,2.64 -3.98,2.64zm27.14 4.06l3.54 0c1.3,0 2.03,-0.73 2.03,-2.03l0 -7.35 5.14 0c7.3,0 11.11,-3.63 11.11,-9.33 0,-5.7 -3.89,-9.38 -11.11,-9.38l-10.72 0c-1.3,0 -2.03,0.73 -2.03,2.03l0 24.03c0,1.3 0.73,2.03 2.03,2.03zm5.57 -15.17l0 -6.74 5.06 0c1.99,0 3.46,1.17 3.46,3.41 0,2.16 -1.47,3.33 -3.46,3.33l-5.06 0zm39.02 -6.65l-3.59 0c-1.25,0 -1.94,0.73 -1.94,1.99l0 10.46c0,2.12 -1.21,3.59 -3.24,3.59 -1.99,0 -3.2,-1.47 -3.2,-3.54l0 -10.5c0,-1.25 -0.73,-1.99 -1.99,-1.99l-3.54 0c-1.25,0 -1.99,0.73 -1.99,1.99l0 11.58c0,5.27 3.59,8.82 8.94,8.82 3.07,0 5.14,-1.43 6.44,-3.41l0 0.86c0,1.25 0.74,1.99 1.99,1.99l2.12 0c1.25,0 1.94,-0.73 1.94,-1.99l0 -17.85c0,-1.25 -0.69,-1.99 -1.94,-1.99zm19.96 -0.35c-2.07,0 -3.93,0.56 -5.49,1.51l0 -8.17c0,-1.3 -0.69,-2.25 -1.99,-1.99l-3.54 0.65c-1.25,0.22 -1.94,0.73 -1.94,1.99l0 26.19c0,1.25 0.69,1.99 1.94,1.99l1.94 0c1.25,0 1.94,-0.73 1.94,-1.99l0 -0.6c1.73,1.9 4.1,3.15 7.13,3.15 6.22,0 10.76,-4.97 10.76,-11.37 0,-6.4 -4.49,-11.37 -10.76,-11.37zm-1.25 16.33c-2.59,0 -4.58,-1.94 -4.62,-4.97 0,-3.02 2.03,-4.97 4.62,-4.97 2.77,0 4.67,2.16 4.67,4.97 0,2.81 -1.9,4.97 -4.67,4.97zm17.85 5.83l3.54 0c1.25,0 1.99,-0.73 1.99,-1.99l0 -26.88c0,-1.3 -0.74,-2.25 -2.03,-1.99l-3.5 0.69c-1.3,0.22 -1.99,0.73 -1.99,1.99l0 26.19c0,1.25 0.69,1.99 1.99,1.99zm14.35 -25.15c2.51,0 4.49,-2.03 4.49,-4.49 0,-2.51 -1.99,-4.49 -4.49,-4.49 -2.46,0 -4.49,1.99 -4.49,4.49 0,2.46 2.03,4.49 4.49,4.49zm-1.77 25.15l3.54 0c1.25,0 1.99,-0.73 1.99,-1.99l0 -17.85c0,-1.25 -0.73,-1.99 -1.99,-1.99l-3.54 0c-1.3,0 -1.99,0.73 -1.99,1.99l0 17.85c0,1.25 0.69,1.99 1.99,1.99zm21.09 0.56c3.67,0 6.48,-1.34 8.56,-3.37 0.56,-0.6 0.91,-1.3 -0.04,-2.25l-2.29 -2.29c-0.61,-0.56 -1.25,-0.82 -2.25,0.09 -1.08,0.99 -2.38,1.47 -3.67,1.47 -2.81,0 -4.71,-2.16 -4.71,-5.01 0,-2.85 1.94,-4.97 4.71,-4.97 1.3,0 2.59,0.43 3.67,1.43 0.99,0.91 1.64,0.65 2.25,0.09l2.29 -2.29c0.95,-0.95 0.6,-1.64 0.04,-2.25 -2.07,-2.03 -4.88,-3.37 -8.56,-3.37 -6.78,0 -11.8,4.8 -11.8,11.37 0,6.57 5.01,11.37 11.8,11.37zm16.16 -25.71c2.51,0 4.49,-2.03 4.49,-4.49 0,-2.51 -1.99,-4.49 -4.49,-4.49 -2.46,0 -4.49,1.99 -4.49,4.49 0,2.46 2.03,4.49 4.49,4.49zm-1.77 25.15l3.54 0c1.25,0 1.99,-0.73 1.99,-1.99l0 -17.85c0,-1.25 -0.73,-1.99 -1.99,-1.99l-3.54 0c-1.3,0 -1.99,0.73 -1.99,1.99l0 17.85c0,1.25 0.69,1.99 1.99,1.99zm27.05 -2.93l-1.21 -2.8c-0.39,-0.82 -0.91,-1.34 -1.99,-0.65 -0.48,0.29 -1.12,0.59 -1.77,0.59 -1.34,0 -2.42,-0.69 -2.42,-2.81l0 -7.78 4.28 0c1.25,0 1.99,-0.73 1.99,-1.99l0 -1.47c0,-1.3 -0.74,-1.99 -1.99,-1.99l-4.28 0 0 -5.66c0,-1.3 -0.69,-2.2 -1.99,-1.94l-3.46 0.61c-1.25,0.26 -1.99,0.73 -1.99,1.99l0 5.01 -1.9 0c-1.3,0 -1.99,0.69 -1.99,1.99l0 1.47c0,1.25 0.69,1.99 1.99,1.99l1.9 0 0 8.56c0,5.92 4.15,8.38 8.47,8.38 2.12,0 4.15,-0.56 5.49,-1.51 0.56,-0.43 1.34,-0.94 0.86,-1.98zm12.14 -19.24c-2.59,0 -5.7,0.78 -7.82,2.12 -0.91,0.56 -1.25,1.34 -0.52,2.72l0.47 0.99c0.61,1.21 1.56,1.3 2.51,0.78 1.04,-0.61 2.72,-1.25 4.84,-1.25 2.51,0 3.93,1.21 3.93,3.24l0 0.78c-1.56,-0.52 -3.24,-0.91 -4.93,-0.91 -5.62,0 -9.29,2.94 -9.29,7.39 0,4.11 3.37,6.87 8.51,6.87 2.68,0 5.1,-1.08 6.91,-2.72l0 0.17c0,1.25 0.69,1.99 1.94,1.99l1.77 0c1.3,0 1.99,-0.69 1.99,-1.99l0 -10.93c0,-6.96 -5.1,-9.25 -10.33,-9.25zm-0.39 18.11c-2.07,0 -3.41,-1.04 -3.41,-2.64 0,-1.6 1.38,-2.72 3.5,-2.72 1.56,0 3.07,0.56 3.89,0.95l0 1.77c0,1.17 -1.64,2.64 -3.98,2.64zm30.81 -17.63c-0.91,-0.3 -1.94,-0.48 -3.11,-0.48 -2.38,0 -4.41,1.25 -5.92,3.37l0 -1.04c0,-1.25 -0.69,-1.99 -1.94,-1.99l-2.29 0c-1.25,0 -1.94,0.73 -1.94,1.99l0 17.85c0,1.25 0.69,1.99 1.94,1.99l3.59 0c1.25,0 1.94,-0.73 1.94,-1.99l0 -9.64c0,-2.55 1.38,-4.23 3.93,-4.23 0.73,0 1.56,0.22 2.25,0.43 0.73,0.27 1.47,0.01 1.82,-1.19l0.82 -3.23c0.35,-1.25 -0.35,-1.59 -1.08,-1.85zm7.43 -3.46c2.51,0 4.49,-2.03 4.49,-4.49 0,-2.51 -1.99,-4.49 -4.49,-4.49 -2.46,0 -4.49,1.99 -4.49,4.49 0,2.46 2.03,4.49 4.49,4.49zm-1.77 25.15l3.54 0c1.25,0 1.99,-0.73 1.99,-1.99l0 -17.85c0,-1.25 -0.73,-1.99 -1.99,-1.99l-3.54 0c-1.3,0 -1.99,0.73 -1.99,1.99l0 17.85c0,1.25 0.69,1.99 1.99,1.99zm19.96 -22.17c-2.59,0 -5.7,0.78 -7.82,2.12 -0.91,0.56 -1.25,1.34 -0.52,2.72l0.48 0.99c0.61,1.21 1.56,1.3 2.51,0.78 1.04,-0.61 2.72,-1.25 4.84,-1.25 2.51,0 3.93,1.21 3.93,3.24l0 0.78c-1.56,-0.52 -3.24,-0.91 -4.93,-0.91 -5.62,0 -9.29,2.94 -9.29,7.39 0,4.11 3.37,6.87 8.51,6.87 2.68,0 5.1,-1.08 6.91,-2.72l0 0.17c0,1.25 0.69,1.99 1.94,1.99l1.77 0c1.3,0 1.99,-0.69 1.99,-1.99l0 -10.93c0,-6.96 -5.1,-9.25 -10.33,-9.25zm-0.39 18.11c-2.07,0 -3.41,-1.04 -3.41,-2.64 0,-1.6 1.38,-2.72 3.5,-2.72 1.56,0 3.07,0.56 3.89,0.95l0 1.77c0,1.17 -1.64,2.64 -3.98,2.64z"/>
 </g>
</svg>
