<?xml version="1.0" encoding="UTF-8"?>
<!DOCTYPE svg PUBLIC "-//W3C//DTD SVG 1.1//EN" "http://www.w3.org/Graphics/SVG/1.1/DTD/svg11.dtd">
<!-- Creator: CorelDRAW (Versión OEM) -->
<svg xmlns="http://www.w3.org/2000/svg" xml:space="preserve" width="220.238mm" height="79.325mm" version="1.1" shape-rendering="geometricPrecision" text-rendering="geometricPrecision" image-rendering="optimizeQuality" fill-rule="evenodd" clip-rule="evenodd"
viewBox="0 0 208216.68 74995.08"
 xmlns:xlink="http://www.w3.org/1999/xlink"
 xmlns:xodm="http://www.corel.com/coreldraw/odm/2003">
 <g id="PRINT">
  <metadata id="CorelCorpID_0Corel-Layer"/>
  <path fill="#160F50" fill-rule="nonzero" d="M88648.29 57813.95c-2709.94,1113.13 -6000.84,1645.59 -9049.71,1645.59 -3048.96,0 -5420.16,-1161.63 -5855.9,-3581.42l15583.38 -2322.7 0 -1839.02c0,-7501.21 -4887.99,-11082.63 -12098.76,-11082.63 -7259.18,0 -12147.17,3581.42 -12147.17,11082.63l0 2613.22c0,7501.11 4984.7,11082.54 12340.7,11082.54 3920.07,0 7355.9,-629.17 10114.34,-1790.81l1113.13 -5807.4zm-15244.35 -6630.01l0 -242.03c0,-3435.83 1355.16,-5129.63 4162.1,-5129.63 2467.91,0 3774.85,1596.81 4161.72,4113.6l-8323.82 1258.06zm40503.39 7113.97c-2080.76,822.98 -4016.5,1161.63 -6872.04,1161.63 -3726.35,0 -5565.38,-1839.02 -5565.38,-5662.09l0 -1548.87c0,-3871.57 1790.52,-5710.4 5468.66,-5710.4 2516.51,0 4258.81,435.46 6049.34,1451.87l0 -6146.43c-2129.17,-822.61 -4790.89,-1209.85 -7791.64,-1209.85 -7210.68,0 -12050.17,3581.42 -12050.17,11082.63l0 2613.22c0,7501.11 4839.49,11082.54 12050.17,11082.54 2952.15,0 5613.88,-435.74 7743.14,-1258.35l967.92 -5855.9zm11998.93 -1742.02l0 -9727.47 6291.36 0 0 -5904.12 -6291.36 0 0 -6678.6 -8323.82 1451.87 0 21196.97c0,5710.69 3823.07,8517.63 8904.49,8517.63 1693.81,0 3629.64,-193.72 5371.94,-822.89l1064.63 -5710.4c-1500.37,435.46 -2806.94,580.67 -4258.81,580.67 -1742.02,0 -2758.44,-1064.63 -2758.44,-2903.65zm22452.1 -10017.72c2613.13,0 3871.57,1500.09 3871.57,4597.56l0 3774.57c0,3097.37 -1258.44,4549.24 -3871.57,4549.24 -2613.51,0 -3920.16,-1451.87 -3920.16,-4549.24l0 -3774.57c0,-3097.46 1306.66,-4597.56 3920.16,-4597.56zm-12243.98 7791.45c0,7501.11 4936.2,11082.54 12243.98,11082.54 7307.4,0 12243.89,-3581.42 12243.89,-11082.54l0 -2613.22c0,-7646.43 -4936.49,-11082.63 -12243.89,-11082.63 -7307.78,0 -12243.98,3581.42 -12243.98,11082.63l0 2613.22zm44520.18 -6436.58l0 -6291.36c-1209.85,-677.39 -2952.15,-919.42 -5032.92,-919.42 -3048.96,0 -6823.82,532.46 -10550.08,1161.35l0 23278.11 8323.82 0 0 -17615.64c1258.35,-290.53 2371.2,-435.74 3387.61,-435.74 1500.37,0 2758.44,290.53 3871.57,822.7zm26904.35 9920.91c-2709.94,1113.13 -6000.84,1645.59 -9049.8,1645.59 -3048.87,0 -5420.16,-1161.63 -5855.9,-3581.42l15583.38 -2322.7 0 -1839.02c0,-7501.21 -4887.99,-11082.63 -12098.67,-11082.63 -7259.18,0 -12147.26,3581.42 -12147.26,11082.63l0 2613.22c0,7501.11 4984.8,11082.54 12340.7,11082.54 3920.16,0 7355.99,-629.17 10114.43,-1790.81l1113.13 -5807.4zm-15244.35 -6630.01l0 -242.03c0,-3435.83 1355.06,-5129.63 4162.1,-5129.63 2467.91,0 3774.85,1596.81 4161.72,4113.6l-8323.82 1258.06z"/>
  <path fill="#8655FF" fill-rule="nonzero" d="M-0 0.09l29783.8 74994.98 18748.63 0 29676.59 -74994.98 -9099.43 0c-7435.69,0 -13757.68,4531.09 -16146.66,11572.55l-10103.65 29780.02c-542.01,1598.04 -1974.97,2627.03 -3662.44,2630.15 -1687.47,3.12 -3124.22,-1020.67 -3672.37,-2616.63l-10251.04 -29853.1c-2407.59,-7011.58 -8712.66,-11512.99 -16126.23,-11512.99l-9147.18 0z"/>
 </g>
</svg>
